<svg width="120" height="120" viewBox="0 0 120 120" fill="none" xmlns="http://www.w3.org/2000/svg">
  <!-- Briefcase Body -->
  <rect x="20" y="40" width="80" height="60" rx="8" fill="#FF8B7A" stroke="#FF6B6B" stroke-width="2"/>
  
  <!-- Top Handle -->
  <path d="M45 40V30C45 25 48 22 53 22H67C72 22 75 25 75 30V40" stroke="#FF6B6B" stroke-width="2.5" stroke-linecap="round" fill="none"/>
  
  <!-- Handle on top -->
  <path d="M50 40C50 35 53 32 60 32C67 32 70 35 70 40" fill="#FF6B6B"/>
  <rect x="48" y="38" width="24" height="8" rx="4" fill="#FF6B6B"/>
  
  <!-- Medical Cross -->
  <rect x="56" y="55" width="8" height="24" rx="2" fill="white"/>
  <rect x="48" y="63" width="24" height="8" rx="2" fill="white"/>
  
  <!-- Lock/Clasp -->
  <circle cx="60" cy="95" r="4" fill="#FF5252"/>
  
  <!-- Bottom feet -->
  <rect x="25" y="98" width="6" height="4" rx="2" fill="#FF5252"/>
  <rect x="89" y="98" width="6" height="4" rx="2" fill="#FF5252"/>
</svg>

